<svg version="1.2" xmlns="http://www.w3.org/2000/svg" viewBox="0 0 302 301" width="302" height="301">
	<title>wireguard</title>
	<style>
		.s0 { fill: #88171a } 
	</style>
	<path class="s0" d="m299.7 145.6c0 0 7-145.6-153-145.6-141.5 0-145.9 139.6-145.9 139.6 0 0-20.8 160.4 149.2 160.4 163 0 149.7-154.4 149.7-154.4zm-197.8-50.9c30.1-18.4 68.4-7.1 82.8 20.5 2.7 5.2 3 13.3 1.3 18.8-5.9 18.9-20 29.5-39.3 34.1 5.7-4.9 10.2-10.4 11.7-18.1q0.5-2.7 0.5-5.4 0-2.8-0.6-5.5-0.6-2.7-1.7-5.3-1.1-2.5-2.8-4.7c-1.7-2.4-3.7-4.4-6.1-6.1-2.3-1.6-4.9-2.9-7.7-3.8-2.8-0.8-5.7-1.2-8.5-1.1-2.9 0.1-5.8 0.6-8.5 1.6-11.9 4.5-18.4 15.3-17.2 28.7 1.1 12.4 10.5 20.4 28.1 23.4-2.7 1.4-4.7 2.4-6.7 3.5q-3 1.7-5.8 3.7-2.8 1.9-5.4 4.2-2.6 2.2-4.9 4.7-2.4 2.6-4.4 5.3c-1.8 2.4-3 2.6-5.7 1-35.4-21.7-37.7-75.9 0.9-99.5zm-26.4 133.5c-5.7 1.5-11.2 3.6-17 5.5 2.8-19.1 25.3-36.8 44.2-34.8q-2 2.9-3.6 5.9-1.7 3.1-2.8 6.4-1.2 3.3-1.9 6.7-0.7 3.4-0.9 6.9c-6.3 1.2-12.2 2-18 3.4zm120.8-187c5.6 0.3 11.2 0.2 16.8 0.3q0.6 0 1.1 0.1 0.5 0 1 0.1 0.5 0.1 1.1 0.2 0.5 0.1 1 0.2-0.5 0.7-1 1.4-0.5 0.7-1 1.4-0.5 0.7-1.1 1.3-0.6 0.7-1.1 1.3c-2 1.9-4.3 3.7-7.2 0.9-0.7-0.7-2.3-0.6-3.6-0.6-5.5 0-11.1-0.2-16.7 0q-1.8 0-3.6 0.2-1.8 0.1-3.6 0.3-1.8 0.2-3.6 0.4-1.8 0.3-3.6 0.6c-0.9 0.1-2.3 3.1-1.8 4.2 0.9 2.6 2.3 5.4 4.4 7.1 7.8 6.1 16 11.6 23.8 17.6 7.5 5.9 14.6 12.4 18.9 21.3 5.5 11.6 5.7 23.7 3.3 35.9-4 20.4-14.3 37.3-31 49.6-6.8 4.9-15.1 7.7-22.8 11.3-6.8 3.1-13.8 5.8-20.6 8.9-12.2 5.5-19.1 18.8-17.1 32.7 1.9 12.6 13 23.2 25.8 25.4 15.3 2.6 31-7.3 34.8-22.9 4.2-17.4-5.3-33-23.1-37.8-0.8-0.2-1.6-0.4-3.2-0.8 4.8-2.1 8.9-3.6 12.7-5.7q9.9-5.5 19.5-11.6c1.8-1.2 2.8-1.2 4.4 0.2 12.3 10.6 19.6 23.7 21.6 39.8 3.4 26.7-9.2 51.2-33.1 63.8-36.8 19.4-81.9-2.7-90.1-43.5-7-35.1 17.8-66.8 47.5-72.9 12.8-2.7 24.5-8 33.6-17.8 5.8-6.4 8.7-11.8 9.6-14.3q0.7-1.7 1.2-3.5 0.5-1.8 0.9-3.6 0.3-1.8 0.5-3.7 0.2-1.8 0.2-3.7-0.1-1.6-0.3-3.2-0.3-1.6-0.6-3.1-0.4-1.6-0.9-3.1-0.6-1.5-1.2-3c-3.1-7-15-18.3-18-20.7l-28-21.9c-0.9-0.8-2.1-0.8-4.5-0.6-2.8 0.2-10.1 0.6-13.3-0.2 2.6-1.9 9.5-4.8 12.5-7-9.1-6.2-19.4-3.9-28.9-5.8 2.2-4.1 13.1-10.4 19.2-11.1q-0.1-1.3-0.3-2.5-0.1-1.3-0.4-2.6-0.2-1.3-0.4-2.6-0.3-1.3-0.5-2.5c-0.4-1.4-2-2.8-3.3-3.6-3.3-1.9-6.8-3.5-10.6-5.4q1.3-0.8 2.6-1.5 1.4-0.6 2.8-1 1.5-0.5 3-0.7 1.4-0.3 2.9-0.3 1.5-0.1 2.9 0 1.4 0 2.9 0.2 1.4 0.1 2.8 0.3 1.4 0.3 2.8 0.6c6.7 1.5 12.1 0.5 17.5-4.1-4.2-1.7-8.5-3.2-12.6-5q-1.5-0.7-3-1.5-1.5-0.7-2.9-1.5-1.5-0.7-3-1.5-1.4-0.9-2.8-1.7c10.6 1.5 20.9 5.5 31.7 4q0.2-0.7 0.3-1.5c-8.1-1.9-16.2-3.8-25.2-5.9 15-1.3 29-1.6 42.3 4.9 3.7 1.8 7.6 3.3 11.2 5.4 1.7 1 2.9 3 4.3 4.6 1.2 1.2 2.1 2.8 3.5 3.6 5.3 2.8 11.1 2.9 17.1 2.8 0-0.7 0-1.3 0.1-2 6 1.8 12.7 8.7 12.7 13.8-9.7 0-19.4-0.1-29.1 0-1 0-2 0.8-3.1 1.2 1 0.6 2 1.6 3 1.6z"/>
	<path class="s0" d="m183.8 26.9q-0.3 0.2-0.5 0.5-0.2 0.3-0.2 0.6 0 0.4 0.1 0.7 0.1 0.3 0.4 0.6 0.2 0.4 0.6 0.6 0.3 0.3 0.8 0.4 0.4 0.1 0.8 0.1 0.5-0.1 0.9-0.3c0.9-0.5 1.8-1 2.9-1.6-0.9-0.7-1.6-1.4-2.3-2-1.4-1.1-2.5-0.4-3.5 0.4z"/>
	<g>
	</g>
</svg>